<svg width="16" height="16" viewBox="0 0 16 16" fill="none" xmlns="http://www.w3.org/2000/svg">
<path fill-rule="evenodd" clip-rule="evenodd" d="M13.5356 8.95054C13.1849 8.8392 12.8102 9.0332 12.6982 9.38387C12.0736 11.3479 10.2349 12.6665 8.12291 12.6665C5.48158 12.6665 3.33358 10.5732 3.33358 7.99987C3.33358 5.4272 5.48158 3.3332 8.12291 3.3332C9.27491 3.3332 10.3616 3.73454 11.2196 4.44654L9.77558 4.20854C9.40891 4.14187 9.06891 4.39454 9.00891 4.7572C8.94891 5.12054 9.19491 5.46387 9.55824 5.5232L12.3889 5.9912C12.4256 5.9972 12.4629 5.99987 12.4982 5.99987C12.5776 5.99987 12.6549 5.98587 12.7269 5.9592C12.7516 5.94987 12.7716 5.93254 12.7956 5.91987C12.8396 5.8972 12.8856 5.8772 12.9236 5.8452C12.9476 5.82587 12.9629 5.79787 12.9836 5.7752C13.0149 5.74254 13.0482 5.7112 13.0716 5.6712C13.0882 5.64254 13.0949 5.60854 13.1076 5.57654C13.1236 5.5372 13.1449 5.50054 13.1529 5.4572L13.6556 2.79054C13.7236 2.42854 13.4856 2.0792 13.1236 2.01187C12.7629 1.94654 12.4129 2.18187 12.3449 2.5432L12.1636 3.50387C11.0542 2.5432 9.63224 1.99987 8.12291 1.99987C4.74691 1.99987 2.00024 4.6912 2.00024 7.99987C2.00024 11.3085 4.74691 13.9999 8.12291 13.9999C10.8176 13.9999 13.1669 12.3072 13.9689 9.78787C14.0802 9.4372 13.8862 9.06254 13.5356 8.95054Z" fill="#5C7292"/>
<mask id="mask0_3715_1740" style="mask-type:luminance" maskUnits="userSpaceOnUse" x="2" y="1" width="13" height="13">
<path fill-rule="evenodd" clip-rule="evenodd" d="M13.5356 8.95054C13.1849 8.8392 12.8102 9.0332 12.6982 9.38387C12.0736 11.3479 10.2349 12.6665 8.12291 12.6665C5.48158 12.6665 3.33358 10.5732 3.33358 7.99987C3.33358 5.4272 5.48158 3.3332 8.12291 3.3332C9.27491 3.3332 10.3616 3.73454 11.2196 4.44654L9.77558 4.20854C9.40891 4.14187 9.06891 4.39454 9.00891 4.7572C8.94891 5.12054 9.19491 5.46387 9.55824 5.5232L12.3889 5.9912C12.4256 5.9972 12.4629 5.99987 12.4982 5.99987C12.5776 5.99987 12.6549 5.98587 12.7269 5.9592C12.7516 5.94987 12.7716 5.93254 12.7956 5.91987C12.8396 5.8972 12.8856 5.8772 12.9236 5.8452C12.9476 5.82587 12.9629 5.79787 12.9836 5.7752C13.0149 5.74254 13.0482 5.7112 13.0716 5.6712C13.0882 5.64254 13.0949 5.60854 13.1076 5.57654C13.1236 5.5372 13.1449 5.50054 13.1529 5.4572L13.6556 2.79054C13.7236 2.42854 13.4856 2.0792 13.1236 2.01187C12.7629 1.94654 12.4129 2.18187 12.3449 2.5432L12.1636 3.50387C11.0542 2.5432 9.63224 1.99987 8.12291 1.99987C4.74691 1.99987 2.00024 4.6912 2.00024 7.99987C2.00024 11.3085 4.74691 13.9999 8.12291 13.9999C10.8176 13.9999 13.1669 12.3072 13.9689 9.78787C14.0802 9.4372 13.8862 9.06254 13.5356 8.95054Z" fill="white"/>
</mask>
<g mask="url(#mask0_3715_1740)">
</g>
</svg>
