<svg width="17" height="17" viewBox="0 0 17 17" fill="none" xmlns="http://www.w3.org/2000/svg">
<path fill-rule="evenodd" clip-rule="evenodd" d="M8.03755 9.97025L8.60875 8.57665L9.96235 8.02945L9.39115 9.42305L8.03755 9.97025ZM11.9464 6.05433C11.7272 5.82233 11.3832 5.73273 11.0672 5.85753L7.69675 7.21913C7.49675 7.29993 7.33755 7.45753 7.25595 7.65753L5.85995 11.0639C5.74155 11.3527 5.81115 11.6647 6.00235 11.8863C6.00875 11.8943 6.01355 11.9047 6.02075 11.9135C6.03355 11.9271 6.04875 11.9383 6.06315 11.9519C6.21355 12.1063 6.41755 12.1999 6.63355 12.1999C6.73355 12.1999 6.83515 12.1815 6.93275 12.1423L10.3032 10.7815C10.5032 10.6999 10.6624 10.5423 10.744 10.3423L12.14 6.93593C12.2696 6.62073 12.18 6.27513 11.9464 6.05433ZM9.00005 15.4C5.47125 15.4 2.60005 12.5288 2.60005 9C2.60005 5.4712 5.47125 2.6 9.00005 2.6C12.5288 2.6 15.4 5.4712 15.4 9C15.4 12.5288 12.5288 15.4 9.00005 15.4ZM9 0.999954C4.5888 0.999954 1 4.58875 1 8.99995C1 13.4112 4.5888 17 9 17C13.4112 17 17 13.4112 17 8.99995C17 4.58875 13.4112 0.999954 9 0.999954Z" fill="#5C7292"/>
<mask id="mask0_3727_1610" style="mask-type:luminance" maskUnits="userSpaceOnUse" x="1" y="1" width="16" height="16">
<path fill-rule="evenodd" clip-rule="evenodd" d="M8.03755 9.97025L8.60875 8.57665L9.96235 8.02945L9.39115 9.42305L8.03755 9.97025ZM11.9464 6.05433C11.7272 5.82233 11.3832 5.73273 11.0672 5.85753L7.69675 7.21913C7.49675 7.29993 7.33755 7.45753 7.25595 7.65753L5.85995 11.0639C5.74155 11.3527 5.81115 11.6647 6.00235 11.8863C6.00875 11.8943 6.01355 11.9047 6.02075 11.9135C6.03355 11.9271 6.04875 11.9383 6.06315 11.9519C6.21355 12.1063 6.41755 12.1999 6.63355 12.1999C6.73355 12.1999 6.83515 12.1815 6.93275 12.1423L10.3032 10.7815C10.5032 10.6999 10.6624 10.5423 10.744 10.3423L12.14 6.93593C12.2696 6.62073 12.18 6.27513 11.9464 6.05433ZM9.00005 15.4C5.47125 15.4 2.60005 12.5288 2.60005 9C2.60005 5.4712 5.47125 2.6 9.00005 2.6C12.5288 2.6 15.4 5.4712 15.4 9C15.4 12.5288 12.5288 15.4 9.00005 15.4ZM9 0.999954C4.5888 0.999954 1 4.58875 1 8.99995C1 13.4112 4.5888 17 9 17C13.4112 17 17 13.4112 17 8.99995C17 4.58875 13.4112 0.999954 9 0.999954Z" fill="white"/>
</mask>
<g mask="url(#mask0_3727_1610)">
</g>
</svg>
