<svg width="24" height="24" viewBox="0 0 24 24" fill="none" xmlns="http://www.w3.org/2000/svg">
<path fill-rule="evenodd" clip-rule="evenodd" d="M14.4562 2.84287C14.4562 2.8428 14.4563 2.84295 14.4562 2.84287L20.4556 7.50935C21.4308 8.26714 22 9.43281 22 10.667V18C22 20.2093 20.2093 22 18 22H6C3.79072 22 2 20.2093 2 18V10.667C2 9.43298 2.56901 8.26746 3.54403 7.50966C3.5439 7.50976 3.54417 7.50956 3.54403 7.50966L9.54403 2.84266C10.9889 1.71905 13.0119 1.71878 14.4562 2.84287ZM10.7719 4.42138C10.7719 4.4214 10.7719 4.42136 10.7719 4.42138L4.77197 9.08832C4.28523 9.46653 4 10.0492 4 10.667V18C4 19.1047 4.89528 20 6 20H18C19.1047 20 20 19.1047 20 18V10.667C20 10.0492 19.7152 9.46684 19.2284 9.08863L13.228 4.42132C12.5065 3.85965 11.495 3.85912 10.7719 4.42138Z" fill="url(#paint0_linear_9707_134)"/>
<path fill-rule="evenodd" clip-rule="evenodd" d="M8 17C8 16.4477 8.44772 16 9 16H15C15.5523 16 16 16.4477 16 17C16 17.5523 15.5523 18 15 18H9C8.44772 18 8 17.5523 8 17Z" fill="url(#paint1_linear_9707_134)"/>
<path fill-rule="evenodd" clip-rule="evenodd" d="M14.4562 2.84287C14.4562 2.8428 14.4563 2.84295 14.4562 2.84287L20.4556 7.50935C21.4308 8.26714 22 9.43281 22 10.667V18C22 20.2093 20.2093 22 18 22H6C3.79072 22 2 20.2093 2 18V10.667C2 9.43298 2.56901 8.26746 3.54403 7.50966C3.5439 7.50976 3.54417 7.50956 3.54403 7.50966L9.54403 2.84266C10.9889 1.71905 13.0119 1.71878 14.4562 2.84287ZM10.7719 4.42138C10.7719 4.4214 10.7719 4.42136 10.7719 4.42138L4.77197 9.08832C4.28523 9.46653 4 10.0492 4 10.667V18C4 19.1047 4.89528 20 6 20H18C19.1047 20 20 19.1047 20 18V10.667C20 10.0492 19.7152 9.46684 19.2284 9.08863L13.228 4.42132C12.5065 3.85965 11.495 3.85912 10.7719 4.42138Z" fill="#5C7292"/>
<path fill-rule="evenodd" clip-rule="evenodd" d="M8 17C8 16.4477 8.44772 16 9 16H15C15.5523 16 16 16.4477 16 17C16 17.5523 15.5523 18 15 18H9C8.44772 18 8 17.5523 8 17Z" fill="#5C7292"/>
<defs>
<linearGradient id="paint0_linear_9707_134" x1="-0.190476" y1="1.99988" x2="16.9525" y2="22.7618" gradientUnits="userSpaceOnUse">
<stop stop-color="#C4FDFF"/>
<stop offset="0.455" stop-color="#00D0FF"/>
<stop offset="1" stop-color="#A758FC"/>
</linearGradient>
<linearGradient id="paint1_linear_9707_134" x1="7.12381" y1="16" x2="7.81511" y2="19.349" gradientUnits="userSpaceOnUse">
<stop stop-color="#C4FDFF"/>
<stop offset="0.455" stop-color="#00D0FF"/>
<stop offset="1" stop-color="#A758FC"/>
</linearGradient>
</defs>
</svg>
