<svg width="18" height="18" viewBox="0 0 18 18" fill="none" xmlns="http://www.w3.org/2000/svg">
<path d="M1.31914 5.99407C1.52615 5.99407 1.63827 5.87331 1.63827 5.66631V3.34609C1.63827 2.2248 2.2248 1.63827 3.34609 1.63827H5.67493C5.88194 1.63827 6.0027 1.52615 6.0027 1.31914C6.0027 1.11213 5.88194 1 5.67493 1H3.32884C1.80216 1 1 1.79353 1 3.31159V5.66631C1 5.87331 1.11213 5.99407 1.31914 5.99407ZM16.6809 5.99407C16.8879 5.99407 17 5.87331 17 5.66631V3.31159C17 1.81078 16.2065 1 14.6798 1H12.3251C12.1181 1 11.9973 1.11213 11.9973 1.31914C11.9973 1.52615 12.1181 1.63827 12.3251 1.63827H14.6539C15.7407 1.63827 16.3617 2.2248 16.3617 3.34609V5.66631C16.3617 5.87331 16.4739 5.99407 16.6809 5.99407ZM8.29703 10.1601H8.37466C9.07332 10.1601 9.42695 9.81509 9.42695 9.10782V6.45984C9.42695 6.26146 9.33208 6.16658 9.13369 6.16658C8.94394 6.16658 8.84043 6.26146 8.84043 6.45984V9.18545C8.84043 9.41833 8.65067 9.56496 8.46092 9.56496H8.16765C8.00377 9.56496 7.88302 9.68571 7.88302 9.8496C7.88302 10.0566 8.0124 10.1601 8.29703 10.1601ZM5.89919 8.17628C6.15795 8.17628 6.32183 8.0124 6.32183 7.75364V6.60647C6.32183 6.33908 6.15795 6.1752 5.89919 6.1752C5.64906 6.1752 5.48518 6.34771 5.48518 6.60647V7.75364C5.48518 8.0124 5.64906 8.17628 5.89919 8.17628ZM12.0232 8.17628C12.2733 8.17628 12.4372 8.0124 12.4372 7.75364V6.60647C12.4372 6.34771 12.2733 6.1752 12.0232 6.1752C11.7644 6.1752 11.5919 6.33908 11.5919 6.60647V7.75364C11.5919 8.0124 11.7644 8.17628 12.0232 8.17628ZM8.92668 12.7995C9.87547 12.7995 10.8243 12.4027 11.5229 11.704C11.5747 11.6609 11.6264 11.5833 11.6264 11.4712C11.6264 11.2987 11.497 11.1865 11.3418 11.1865C11.2469 11.1865 11.1693 11.2124 11.0571 11.3332C10.5396 11.8507 9.73747 12.2216 8.92668 12.2216C8.1159 12.2216 7.32237 11.8507 6.79623 11.3332C6.69272 11.221 6.61509 11.1865 6.51159 11.1865C6.35633 11.1865 6.22695 11.2987 6.22695 11.4712C6.22695 11.5747 6.27871 11.6523 6.33046 11.704C7.01186 12.4113 7.9779 12.7995 8.92668 12.7995ZM3.32884 17H5.67493C5.88194 17 6.0027 16.8879 6.0027 16.6809C6.0027 16.4739 5.88194 16.3617 5.67493 16.3617H3.34609C2.2248 16.3617 1.63827 15.7752 1.63827 14.6453V12.3337C1.63827 12.1267 1.52615 11.9973 1.31914 11.9973C1.11213 11.9973 1 12.1267 1 12.3337V14.6798C1 16.2065 1.80216 17 3.32884 17ZM12.3251 17H14.6798C16.2065 17 17 16.1806 17 14.6798V12.3337C17 12.1267 16.8879 11.9973 16.6809 11.9973C16.4739 11.9973 16.3617 12.1267 16.3617 12.3337V14.6453C16.3617 15.7752 15.7407 16.3617 14.6539 16.3617H12.3251C12.1181 16.3617 11.9973 16.4739 11.9973 16.6809C11.9973 16.8879 12.1181 17 12.3251 17Z" fill="white" stroke="#5C7292" stroke-width="0.8"/>
</svg>
