<svg width="17" height="16" viewBox="0 0 17 16" fill="none" xmlns="http://www.w3.org/2000/svg">
<path fill-rule="evenodd" clip-rule="evenodd" d="M2.60005 10.204V13.6544C2.60005 13.8448 2.77925 14 3.00005 14H15C15.2208 14 15.4 13.8448 15.4 13.6544V6.78243C15.4 6.59123 15.2208 6.43683 15 6.43683H9.00005C8.76005 6.43683 8.53285 6.32883 8.38085 6.14243L6.30085 3.60003H3.00005C2.77925 3.60003 2.60005 3.75443 2.60005 3.94483V10.204ZM15 15.6H3C1.8976 15.6 1 14.7272 1 13.6544V3.94478C1 2.87198 1.8976 1.99998 3 1.99998H6.6808C6.92 1.99998 7.148 2.10718 7.3 2.29358L9.3792 4.83678H15C16.1024 4.83678 17 5.70878 17 6.78238V13.6544C17 14.7272 16.1024 15.6 15 15.6Z" fill="#5C7292"/>
<mask id="mask0_3727_1626" style="mask-type:luminance" maskUnits="userSpaceOnUse" x="1" y="2" width="16" height="14">
<path fill-rule="evenodd" clip-rule="evenodd" d="M2.60005 10.204V13.6544C2.60005 13.8448 2.77925 14 3.00005 14H15C15.2208 14 15.4 13.8448 15.4 13.6544V6.78243C15.4 6.59123 15.2208 6.43683 15 6.43683H9.00005C8.76005 6.43683 8.53285 6.32883 8.38085 6.14243L6.30085 3.60003H3.00005C2.77925 3.60003 2.60005 3.75443 2.60005 3.94483V10.204ZM15 15.6H3C1.8976 15.6 1 14.7272 1 13.6544V3.94478C1 2.87198 1.8976 1.99998 3 1.99998H6.6808C6.92 1.99998 7.148 2.10718 7.3 2.29358L9.3792 4.83678H15C16.1024 4.83678 17 5.70878 17 6.78238V13.6544C17 14.7272 16.1024 15.6 15 15.6Z" fill="white"/>
</mask>
<g mask="url(#mask0_3727_1626)">
</g>
</svg>
