<svg width="20" height="20" viewBox="0 0 20 20" fill="none" xmlns="http://www.w3.org/2000/svg">
<path fill-rule="evenodd" clip-rule="evenodd" d="M3.87431 1.17709C2.39614 1.17709 1.177 2.39623 1.177 3.8744V6.15847C1.177 6.48351 0.913498 6.74701 0.588454 6.74701C0.263409 6.74701 -9.15527e-05 6.48351 -9.15527e-05 6.15847V3.8744C-9.15527e-05 1.74614 1.74605 0 3.87431 0H6.15838C6.48342 0 6.74692 0.263501 6.74692 0.588545C6.74692 0.91359 6.48342 1.17709 6.15838 1.17709H3.87431Z" fill="#E2F2FF"/>
<path fill-rule="evenodd" clip-rule="evenodd" d="M0.588454 13.253C0.913498 13.253 1.177 13.5165 1.177 13.8415V16.1256C1.177 17.6038 2.39614 18.8229 3.87431 18.8229H6.15838C6.48342 18.8229 6.74692 19.0864 6.74692 19.4115C6.74692 19.7365 6.48342 20 6.15838 20H3.87431C1.74605 20 -9.15527e-05 18.2539 -9.15527e-05 16.1256V13.8415C-9.15527e-05 13.5165 0.263409 13.253 0.588454 13.253Z" fill="#E2F2FF"/>
<path fill-rule="evenodd" clip-rule="evenodd" d="M13.2538 0.588545C13.2538 0.263501 13.5173 0 13.8424 0H16.1264C18.2547 0 20.0008 1.74614 20.0008 3.8744V6.15847C20.0008 6.48351 19.7373 6.74701 19.4123 6.74701C19.0872 6.74701 18.8237 6.48351 18.8237 6.15847V3.8744C18.8237 2.39623 17.6046 1.17709 16.1264 1.17709H13.8424C13.5173 1.17709 13.2538 0.91359 13.2538 0.588545Z" fill="#E2F2FF"/>
<path fill-rule="evenodd" clip-rule="evenodd" d="M19.4123 13.253C19.7373 13.253 20.0008 13.5165 20.0008 13.8415V16.1256C20.0008 18.2539 18.2547 20 16.1264 20H13.8424C13.5173 20 13.2538 19.7365 13.2538 19.4115C13.2538 19.0864 13.5173 18.8229 13.8424 18.8229H16.1264C17.6046 18.8229 18.8237 17.6038 18.8237 16.1256V13.8415C18.8237 13.5165 19.0872 13.253 19.4123 13.253Z" fill="#E2F2FF"/>
<path fill-rule="evenodd" clip-rule="evenodd" d="M6.43557 13.6632C6.66228 13.4375 7.02985 13.4375 7.25656 13.6632C8.09891 14.5016 9.21711 14.9889 10.4824 14.9889C11.7445 14.9889 12.9031 14.4646 13.7083 13.6632C13.935 13.4375 14.3026 13.4375 14.5293 13.6632C14.756 13.8889 14.756 14.2547 14.5293 14.4804C13.5163 15.4886 12.0662 16.1446 10.4824 16.1446C8.90188 16.1446 7.49044 15.5303 6.43557 14.4804C6.20886 14.2547 6.20886 13.8889 6.43557 13.6632Z" fill="#E2F2FF"/>
<path fill-rule="evenodd" clip-rule="evenodd" d="M6.14402 6.98795C6.47673 6.98795 6.74643 7.23562 6.74643 7.54114V9.08537C6.74643 9.39089 6.47673 9.63856 6.14402 9.63856C5.81132 9.63856 5.54161 9.39089 5.54161 9.08537V7.54114C5.54161 7.23562 5.81132 6.98795 6.14402 6.98795Z" fill="#E2F2FF"/>
<path fill-rule="evenodd" clip-rule="evenodd" d="M14.8198 6.98795C15.1525 6.98795 15.4222 7.23562 15.4222 7.54114V9.08537C15.4222 9.39089 15.1525 9.63856 14.8198 9.63856C14.4871 9.63856 14.2174 9.39089 14.2174 9.08537V7.54114C14.2174 7.23562 14.4871 6.98795 14.8198 6.98795Z" fill="#E2F2FF"/>
<path fill-rule="evenodd" clip-rule="evenodd" d="M10.5063 6.98792C10.8254 6.98792 11.0841 7.24389 11.0841 7.55965V10.4792C11.0841 11.6124 10.1566 12.5301 9.01132 12.5301C8.6922 12.5301 8.4335 12.2741 8.4335 11.9584C8.4335 11.6426 8.6922 11.3866 9.01132 11.3866C9.51837 11.3866 9.92847 10.9809 9.92847 10.4792V7.55965C9.92847 7.24389 10.1872 6.98792 10.5063 6.98792Z" fill="#E2F2FF"/>
</svg>
